<svg xmlns="http://www.w3.org/2000/svg" viewBox="0 0 512 512"><path fill="#fbfbfb" stroke="#fbfbfb" d="M28.455 2.455c-5.246 5.245-3.883 8.521 8.843 21.247C47.955 34.359 48.824 35 52.624 35c2.91 0 4.589-.624 6.053-2.25 5.187-5.763 3.666-9.216-9.911-22.5C36.935-1.326 33.539-2.63 28.455 2.455m51.679 8.962C69.726 21.721 68.6 23.182 68.6 26.39c0 5.132 3.545 8.61 8.776 8.61C83.35 35 104 14.568 104 8.657 104 3.56 100.455 0 95.38 0c-3.391 0-4.705.984-15.246 11.417m291.628 8.372c-4.831.602-8.762 5.606-8.762 11.153 0 10.882 11.947 15.942 19.362 8.202 7.969-8.318 1.124-20.816-10.6-19.355M49.5 42.962c-1.1.46-6.837 5.764-12.75 11.788-12.118 12.345-13.438 15.653-8.295 20.795 5.084 5.085 8.48 3.781 20.311-7.795 5.762-5.638 11.086-11.674 11.833-13.415 3.074-7.171-3.944-14.362-11.099-11.373m23.356.514c-3.704 2.069-5.203 6.782-3.455 10.859C72.004 60.405 91.192 78 95.209 78c4.977 0 8.791-3.739 8.791-8.618 0-3.393-.97-4.69-11.25-15.042-12.033-12.116-14.874-13.668-19.894-10.864M256.5 46.155c-6.033 3.3-6.243 9.737-.5 15.345 5.658 5.524 5.308 5.62-7.25 1.979-55.076-15.965-114.919-6.33-161.181 25.953C-1.455 151.555-20.456 275.65 46.045 360.626l4.795 6.127-3.928 12.373C34.804 417.279 38.72 450.72 57.263 467.5c18.118 16.396 59.591 28.155 140.975 39.973 39.767 5.775 90.26 6.132 134.762.954 19.452-2.263 48.932-7.34 52.083-8.97 2.542-1.314 5.436-6.809 4.437-8.424-.25-.405 3.205-1.74 7.677-2.966 7.188-1.969 8.233-2.051 8.99-.697 3.158 5.643 6.712 6.373 17.344 3.564 9.368-2.474 12.469-4.954 12.469-9.971 0-4.66 5.373-5.862 8.673-1.94 3.46 4.112 6.632 3.894 21.966-1.514 25.309-8.926 36.097-19.917 39.445-40.186 2.656-16.087-1.513-26.215-20.018-48.633-14.706-17.814-17.079-21.469-19.918-30.69-5.943-19.303-3.905-29.072 12.592-60.362 13.131-24.904 14.467-28.523 15.033-40.705.824-17.734-3.945-30.34-16.052-42.425-15.184-15.157-30.47-19.016-57.11-14.418-21.984 3.795-30.588.905-42.887-14.405-2.733-3.402-5.446-7.532-6.029-9.178-11.425-32.256-41.246-69.057-72.898-89.961-5.195-3.431-5.652-4.023-5.127-6.645.614-3.07-.966-6.289-5.456-11.119l-2.527-2.718 4.156-4.51c5.231-5.674 5.526-9.338 1.111-13.754-4.15-4.149-8.758-3.466-14.352 2.128l-3.987 3.986-4.764-4.457c-4.869-4.554-7.607-5.35-11.351-3.302m184.953 2.11c-22.097 8.957-23.933 38.618-2.994 48.368 26.206 12.203 50.157-20.649 30.234-41.471-6.518-6.812-19.401-10.074-27.24-6.897m2.809 18.264c-2.627 1.84-3.881 7.446-2.318 10.366 4.449 8.314 16.536 5.293 16.27-4.067-.186-6.542-8.345-10.226-13.952-6.299" fill-rule="evenodd"/><path fill="#bb54b3" stroke="#bb54b3" d="M28.923 2.923c-5.185 5.185-4.378 7.03 8.873 20.281C50.942 36.35 53.561 37.53 58.545 32.545c4.972-4.971 3.722-8.347-7.295-19.702C37.847-.971 34.365-2.518 28.923 2.923M80.34 11.34c-12.763 12.764-14.111 15.98-8.885 21.205 4.984 4.985 7.603 3.805 20.749-9.341 13.251-13.251 14.058-15.096 8.873-20.281-5.464-5.464-7.805-4.514-20.737 8.417M366.4 23.4c-4.504 4.504-4.752 10.077-.65 14.603 7.092 7.826 19.252 3.895 19.542-6.317.299-10.545-11.471-15.707-18.892-8.286M38.843 52.75c-13.814 13.403-15.361 16.885-9.92 22.327 5.185 5.185 7.03 4.378 20.281-8.873 12.908-12.908 13.975-15.164 9.723-20.569-4.357-5.54-8.584-4.043-20.084 7.115m32.23-7.115c-4.324 5.497-3.215 7.843 9.77 20.668 13.28 13.117 15.101 13.907 20.234 8.774 5.441-5.442 3.894-8.924-9.92-22.327-11.5-11.158-15.727-12.655-20.084-7.115m186.284.335c-6.505 2.691-6.977 9.432-1.095 15.657l4.262 4.512-4.262 4.448c-10.672 11.138.528 22.511 12.121 12.307l4.664-4.105 4.454 4.105c5.248 4.838 8.966 5.329 13.143 1.736 4.413-3.796 3.861-8.521-1.652-14.138L284.584 66l4.066-4.25c5.078-5.307 5.683-7.018 3.948-11.171-2.778-6.647-8.55-6.734-15.348-.229L273 54.416l-4.25-4.142c-4.553-4.437-7.96-5.724-11.393-4.304m184.552 2.525c-18.162 5.827-23.776 29.305-10.242 42.838 13.905 13.905 37.461 7.794 42.968-11.148 5.666-19.492-13.35-37.907-32.726-31.69m2.137 18.305c-3.998 3.998-4.156 8.818-.41 12.564 5.82 5.82 16.311.86 15.019-7.101-1.259-7.761-9.302-10.769-14.609-5.463m-239.938 59.23c-12.236 2.547-17.752 6.715-39.328 29.72-8.555 9.121-8.741 9.25-13.371 9.25-5.248 0-3.748 1.263-23.909-20.132-11.123-11.804-16.426-15.168-26.451-16.783-15.841-2.551-31.146 5.389-38.421 19.933-6.041 12.074-5.997 12.694 4.324 60.682 15.295 71.121 14.987 79.292-4.891 129.705-17.617 44.678-22.731 64.463-21.737 84.095 2.441 48.242 25.585 62.632 128.676 80.01 76.364 12.872 133.215 12.7 204.681-.617 12.087-2.252 14.067-3.425 15.208-9.006.619-3.023 1.086-3.312 8.7-5.391l8.047-2.196 1.641 2.859c2.661 4.638 5.597 5.141 15.501 2.658C432.851 488.29 436 485.874 436 480.67c0-5.08 4.958-5.997 9.004-1.666 3.655 3.913 5.388 3.817 19.635-1.087 21.396-7.365 31.052-14.708 37.646-28.629 3.067-6.475 3.215-7.344 3.215-18.84 0-15.959-2.314-20.804-20.039-41.948-19.593-23.372-24.483-35.925-21.718-55.75 1.058-7.586 2.239-10.425 14.662-35.25 8.304-16.595 13.912-29.042 14.553-32.299 6.053-30.781-13.702-59.783-44.909-65.931-7.972-1.57-9.074-1.56-20.487.19-32.757 5.023-37.025 3.432-55.824-20.809-5.609-7.233-12.108-15.012-14.442-17.286-17.949-17.492-44.332-22.78-69.644-13.959-14.152 4.931-15.118 4.735-24.458-4.977-8.309-8.639-17.716-13.852-27.767-15.39-9.494-1.452-26.55-2.001-31.319-1.009" fill-rule="evenodd"/><path fill="#4c241d" stroke="#4c241d" d="M31.465.93c-4.346 1.808-6.072 7.23-3.696 11.612 2.033 3.752 20.819 21.317 23.524 21.995 5.045 1.267 10.678-4.575 9.368-9.713C59.844 21.618 39.099 1.242 36 .601 34.625.316 32.584.465 31.465.93M92.5.941c-1.1.471-6.838 5.785-12.75 11.809-12.093 12.32-12.883 14.27-7.827 19.327 5.131 5.131 7.898 3.853 21.327-9.849 9.038-9.221 9.75-10.239 9.75-13.933 0-5.829-5.337-9.567-10.5-7.354m276.821 20.672c-9.812 4.839-6.943 18.886 4.111 20.132 4.14.467 4.806.217 8.041-3.018 9.037-9.037-.706-22.758-12.152-17.114M38.444 54.098c-11.672 11.516-12.972 13.742-10.9 18.668C28.915 76.028 30.68 77 35.231 77c3.839 0 24.27-19.451 25.285-24.073.696-3.169-1.563-8.347-4.061-9.306-4.741-1.819-6.706-.677-18.011 10.477m34.785-10.429c-2.211.89-4.396 6.292-3.745 9.258.385 1.753 4.609 6.721 11.414 13.427C92.754 78.037 96.396 79.604 101 75c4.79-4.79 3.122-8.503-9.346-20.805-11.461-11.308-13.536-12.493-18.425-10.526m183 3c-2.092.842-4.389 6.24-3.673 8.631.362 1.21 2.504 4.113 4.76 6.45l4.1 4.25-4.408 4.492c-10.887 11.093.371 22.423 11.463 11.536l4.455-4.371 4.994 4.671c5.408 5.059 6.702 5.436 11.008 3.209 5.607-2.899 5.594-8.526-.034-14.92l-4.105-4.664 4.105-4.454c4.917-5.334 5.417-9.279 1.651-13.044-3.737-3.738-7.713-3.263-12.929 1.545-5.304 4.889-4.962 4.889-9.851 0-3.901-3.901-7.522-4.946-11.536-3.331m181.939 3.934c-20.195 10.064-17.409 40.62 4.279 46.925 26.275 7.638 44.39-25.417 23.842-43.505-7.673-6.754-18.731-8.099-28.121-3.42m6.488 14.53c-3.402 1.977-4.907 7.331-3.205 11.403 3.99 9.55 17.549 6.809 17.549-3.547 0-6.526-8.564-11.216-14.344-7.856m-243.764 62.316c-9.481 2.615-14.708 6.537-29.678 22.267-20.36 21.395-19.858 21.406-40.598-.933-10.757-11.586-13.771-14.226-19.404-17C87.614 120.166 59 137.835 59 164.023c0 3.41 3.631 22.364 9.112 47.572C82.597 278.206 82.129 289.256 62.768 338c-17.524 44.119-22.005 60.525-21.984 80.5.035 32.485 10.451 49.402 37.716 61.254 40.575 17.639 145.34 33.977 203.5 31.737 41.615-1.602 100.214-9.276 104.64-13.703 2.64-2.64 2.78-7.984.292-11.147-2.653-3.373-5.178-3.346-25.432.269-70.669 12.615-136.117 10.584-222-6.889-68.708-13.978-84.212-26.526-82.192-66.521.773-15.32 5.847-32.027 22.017-72.5 9.858-24.676 13.191-37.139 14.861-55.582 1.723-19.028.431-28.963-10.193-78.37-8.455-39.32-9.044-42.787-7.986-47 2.369-9.423 9.802-15.191 19.58-15.191 7.901 0 11.543 2.564 25.867 18.209C136.2 179.172 140.541 182 150.518 182c12.307 0 15.38-2.019 34.028-22.354 15.226-16.603 19.751-18.525 39.397-16.732 15.228 1.39 19.33 3.204 28.046 12.404 12.328 13.013 22.768 15.287 40.011 8.713 14.862-5.666 28.333-5.301 41.5 1.125 8.352 4.076 12.598 8.18 25.777 24.912 21.635 27.466 33.024 32.113 65.627 26.774 19.927-3.264 30.144-.846 40.657 9.619 8.268 8.231 10.939 14.907 10.939 27.345v10.307l-12.718 24.842c-16.975 33.155-20.016 45.088-16.472 64.615 2.945 16.224 7.597 24.683 25.24 45.89 15.887 19.097 18.477 24.744 16.405 35.776-2.588 13.78-8.223 18.865-29.531 26.647-17.147 6.262-20.078 9.758-14.052 16.763 3.286 3.82 6.509 3.507 22.08-2.143 23.129-8.393 32.358-17.159 37.056-35.196 4.583-17.593.511-28.628-19.41-52.613C466.969 366.868 463 358.301 463 341c0-12.635 1.858-18.035 14.956-43.453 15.504-30.087 17.517-37.384 14.688-53.239-3.718-20.839-18.846-37.542-39.576-43.696-7.373-2.189-18.368-2.025-34.105.506-23.282 3.746-29.285.857-48.408-23.298-13.144-16.602-19.655-22.601-30.021-27.655-16.611-8.099-34.096-8.793-53.044-2.105-13.553 4.783-15.44 4.328-25.565-6.173-8.72-9.045-17.667-13.413-30.425-14.854-11.852-1.339-24.885-1.162-30.608.416M216 209c-4.46 4.46-.847 13 5.5 13 3.838 0 7.5-3.697 7.5-7.573 0-4.522-2.934-7.427-7.5-7.427-2.167 0-4.262.762-5.5 2m98.763 10.565c-6.602 3.582-3.047 14.435 4.728 14.435.769 0 2.623-1.054 4.12-2.342 7.191-6.185-.461-16.644-8.848-12.093m-141.288 15.703c-5.536 4.762-3.192 12.575 4.425 14.748 31.795 9.071 87.642 15.215 139.764 15.376l35.164.108 2.586-2.424c3.404-3.192 3.565-8.83.336-11.791-2.165-1.986-3.647-2.083-39.25-2.59-48.672-.693-83.439-4.114-119.653-11.774-21.552-4.559-20.112-4.457-23.372-1.653M419.5 474.07c-12.066 3.394-14.629 5.979-12.456 12.564 1.941 5.88 5.563 6.59 17.188 3.369 8.552-2.37 11.168-4.596 11.168-9.503 0-7.235-5.349-9.398-15.9-6.43" fill-rule="evenodd"/></svg>